<svg version="1.1" id="レイヤー_1" xmlns="http://www.w3.org/2000/svg" xmlns:xlink="http://www.w3.org/1999/xlink"  width="81px" height="31px" viewBox="0 0 81 31" style="enable-background:new 0 0 81 31;">
<style type="text/css">
	.ic-new_w{fill:#FFFFFF;}
	.ic-new_p{fill:#E50065;}
	.ic-new_y{fill:#F7D000;}
	.ic-new_b{fill:#49A0E8;}
</style>
<g>
	<path class="ic-new_w" d="M70.842,4.288c-0.036-0.036-0.072-0.072-0.108-0.108c-0.032-0.033-0.064-0.065-0.097-0.098
		c-0.036-0.037-0.073-0.074-0.11-0.111c-0.035-0.036-0.07-0.071-0.105-0.105c-0.036-0.036-0.072-0.072-0.108-0.108
		c-0.032-0.033-0.064-0.065-0.097-0.098c-0.036-0.037-0.073-0.074-0.11-0.111c-0.036-0.036-0.072-0.072-0.108-0.108
		c-0.034-0.035-0.068-0.069-0.103-0.103c-0.033-0.034-0.066-0.067-0.1-0.1c-0.036-0.037-0.073-0.074-0.11-0.111
		c-0.036-0.036-0.072-0.072-0.108-0.108c-0.034-0.035-0.068-0.069-0.103-0.103c-0.033-0.034-0.066-0.067-0.1-0.1
		C69.338,2.778,69.3,2.74,69.262,2.703c-0.034-0.035-0.068-0.069-0.103-0.103c-0.035-0.036-0.07-0.071-0.105-0.105
		c-0.033-0.034-0.066-0.067-0.1-0.1c-0.037-0.038-0.075-0.076-0.113-0.113c-0.034-0.035-0.068-0.069-0.103-0.103
		c-1.09-1.118-2.61-1.815-4.291-1.815H62.34c-0.951,0-1.876,0.224-2.708,0.645c-0.832-0.421-1.757-0.645-2.708-0.645H55.99
		c-0.956,0-1.885,0.226-2.719,0.65c-0.835-0.424-1.764-0.65-2.72-0.65H48.4c-1.366,0-2.623,0.464-3.633,1.236
		c-0.999-0.742-2.231-1.187-3.568-1.187H32.8c-3.34,0-5.65,0.895-7.251,2.222c-0.014-0.014-0.031-0.027-0.045-0.041
		c-0.036-0.036-0.071-0.073-0.108-0.108c-0.035-0.036-0.07-0.071-0.105-0.105c-0.035-0.036-0.07-0.071-0.105-0.105
		c-1.09-1.118-2.61-1.815-4.291-1.815h-2.129c-1.55,0-3.005,0.609-4.095,1.625c-1.503-1.182-3.378-1.794-5.538-1.794
		C4.587,0.294,0,3.39,0,10.305v11.969c0,1.681,0.697,3.201,1.815,4.291c0.034,0.035,0.068,0.069,0.103,0.103
		c0.036,0.036,0.071,0.073,0.108,0.108c0.034,0.035,0.068,0.069,0.103,0.103c0.036,0.036,0.071,0.073,0.108,0.108
		c0.035,0.036,0.071,0.072,0.108,0.108c0.034,0.035,0.068,0.069,0.103,0.102c0.034,0.035,0.068,0.069,0.103,0.103
		c0.036,0.036,0.071,0.073,0.108,0.108c0.034,0.035,0.068,0.069,0.103,0.103c0.036,0.036,0.071,0.073,0.108,0.108
		c0.034,0.035,0.068,0.069,0.103,0.103c0.036,0.036,0.071,0.073,0.108,0.108c0.034,0.035,0.068,0.069,0.103,0.103
		c0.036,0.036,0.071,0.073,0.108,0.108c0.035,0.036,0.071,0.072,0.108,0.108c0.034,0.035,0.068,0.069,0.103,0.102
		c0.034,0.035,0.068,0.069,0.103,0.103c0.036,0.036,0.071,0.073,0.108,0.108c0.034,0.035,0.068,0.069,0.103,0.103
		c0.036,0.036,0.071,0.073,0.108,0.108c1.09,1.118,2.61,1.815,4.291,1.815h2.106c1.62,0,3.127-0.663,4.226-1.751
		c1.543,1.297,3.411,1.97,5.518,1.97c3.019,0,5.412-1.145,6.979-3.18c1.839,1.928,4.513,2.961,7.905,2.961h8.465
		c1.955,0,3.689-0.944,4.786-2.396c1.891,1.585,4.537,2.37,7.961,2.37h4.713c7.602,0,11.788-4.376,11.788-12.323v-9.56
		C72.656,6.898,71.959,5.378,70.842,4.288z"/>
	<path class="ic-new_p" d="M25.876,5.8c-0.035-0.036-0.069-0.071-0.105-0.105c-0.035-0.036-0.07-0.071-0.106-0.106
		c-0.035-0.036-0.069-0.07-0.105-0.105c-0.035-0.036-0.069-0.071-0.105-0.105c-0.035-0.036-0.069-0.071-0.105-0.105
		c-0.035-0.036-0.069-0.071-0.105-0.105c-0.035-0.036-0.069-0.071-0.105-0.105c-0.035-0.036-0.069-0.071-0.105-0.105
		C25,4.923,24.966,4.888,24.93,4.854c-0.035-0.036-0.069-0.071-0.105-0.105c-0.035-0.036-0.069-0.071-0.105-0.105
		c-0.035-0.036-0.069-0.071-0.105-0.105c-0.035-0.036-0.07-0.071-0.106-0.106c-0.035-0.036-0.069-0.07-0.105-0.105
		c-0.035-0.036-0.069-0.071-0.105-0.105c-0.035-0.036-0.069-0.071-0.105-0.105c-0.035-0.036-0.069-0.071-0.105-0.105
		c-0.035-0.036-0.07-0.071-0.105-0.106c-0.035-0.036-0.069-0.071-0.105-0.105c-0.035-0.036-0.069-0.071-0.105-0.105
		c-0.728-0.755-1.745-1.229-2.876-1.229h-2.129c-1.751,0-3.231,1.13-3.772,2.697c-0.009-0.008-0.019-0.015-0.028-0.023
		C14.933,5.108,14.9,5.07,14.864,5.037c-0.036-0.034-0.069-0.072-0.105-0.105c-0.036-0.035-0.069-0.072-0.106-0.106
		c-0.035-0.034-0.069-0.072-0.105-0.105c-0.036-0.034-0.069-0.072-0.105-0.105c-0.036-0.034-0.069-0.072-0.105-0.106
		c-0.035-0.034-0.069-0.072-0.105-0.105c-0.036-0.034-0.069-0.072-0.105-0.106c-0.035-0.034-0.069-0.072-0.105-0.105
		c-0.036-0.034-0.069-0.072-0.105-0.106c-1.226-1.187-2.821-1.791-4.78-1.791C5.842,2.294,2,4.392,2,10.305v11.969
		c0,1.131,0.474,2.148,1.229,2.876c0.035,0.036,0.069,0.071,0.105,0.105c0.035,0.036,0.07,0.071,0.106,0.106
		c0.034,0.036,0.069,0.07,0.105,0.105c0.035,0.036,0.069,0.071,0.105,0.106c0.035,0.036,0.069,0.071,0.105,0.105
		c0.035,0.036,0.069,0.071,0.105,0.106c0.035,0.036,0.069,0.071,0.105,0.105c0.035,0.036,0.07,0.07,0.106,0.105
		c0.035,0.036,0.069,0.071,0.105,0.105c0.035,0.036,0.069,0.071,0.105,0.106c0.035,0.036,0.069,0.071,0.105,0.105
		c0.035,0.036,0.069,0.071,0.105,0.105c0.035,0.036,0.07,0.071,0.106,0.106c0.034,0.036,0.069,0.07,0.105,0.105
		c0.035,0.036,0.069,0.071,0.105,0.106c0.035,0.036,0.069,0.071,0.105,0.105c0.035,0.036,0.069,0.071,0.105,0.106
		c0.035,0.036,0.069,0.071,0.105,0.105c0.035,0.036,0.069,0.071,0.105,0.105c0.035,0.036,0.069,0.071,0.105,0.105
		c0.728,0.755,1.745,1.23,2.876,1.23h2.106c1.833,0,3.366-1.238,3.839-2.92c0.009,0.009,0.019,0.016,0.028,0.025
		c0.035,0.036,0.07,0.071,0.105,0.106c0.035,0.036,0.07,0.071,0.105,0.106c0.035,0.035,0.07,0.071,0.105,0.105
		c0.035,0.035,0.07,0.071,0.105,0.105c0.035,0.035,0.07,0.071,0.105,0.105c0.035,0.035,0.07,0.071,0.105,0.105
		c0.035,0.035,0.07,0.071,0.105,0.105c0.035,0.036,0.07,0.071,0.106,0.106c0.035,0.036,0.07,0.071,0.105,0.106
		c0.035,0.035,0.07,0.071,0.105,0.105c0.035,0.035,0.07,0.071,0.105,0.105c1.277,1.297,2.853,1.955,4.719,1.955
		c4.477,0,7.045-2.964,7.045-8.133V8.676C27.104,7.545,26.631,6.528,25.876,5.8z"/>
	<path class="ic-new_y" d="M47.409,8.627c0-1.131-0.474-2.148-1.229-2.876c-0.035-0.036-0.069-0.071-0.105-0.105c-0.035-0.036-0.07-0.071-0.106-0.106
		c-0.035-0.036-0.069-0.07-0.105-0.105C45.83,5.4,45.795,5.365,45.759,5.33c-0.035-0.036-0.069-0.071-0.105-0.105
		c-0.035-0.036-0.069-0.071-0.105-0.105c-0.035-0.036-0.069-0.071-0.105-0.105c-0.035-0.036-0.069-0.071-0.105-0.105
		c-0.035-0.036-0.069-0.071-0.105-0.105c-0.035-0.036-0.069-0.071-0.105-0.105c-0.035-0.036-0.069-0.071-0.105-0.105
		c-0.035-0.036-0.069-0.071-0.105-0.105c-0.035-0.036-0.07-0.071-0.106-0.106c-0.035-0.036-0.069-0.07-0.105-0.105
		c-0.035-0.036-0.069-0.071-0.105-0.105c-0.035-0.036-0.069-0.071-0.105-0.105c-0.035-0.036-0.069-0.071-0.105-0.105
		c-0.035-0.036-0.07-0.071-0.105-0.106c-0.035-0.036-0.069-0.071-0.105-0.105c-0.035-0.036-0.069-0.071-0.105-0.105
		c-0.728-0.755-1.745-1.229-2.876-1.229H32.8c-8.858,0-8.858,7.388-8.858,10.542v3.772c0,3.515,0.953,5.787,2.361,7.232
		c0.034,0.037,0.07,0.07,0.105,0.105c0.034,0.037,0.071,0.07,0.106,0.106c0.034,0.037,0.07,0.069,0.105,0.105
		c0.034,0.037,0.071,0.07,0.105,0.106c0.034,0.037,0.07,0.07,0.105,0.105c0.034,0.037,0.071,0.07,0.105,0.106
		c0.034,0.037,0.071,0.07,0.105,0.106c0.034,0.037,0.07,0.069,0.105,0.105c0.034,0.037,0.07,0.07,0.105,0.105
		c0.034,0.037,0.071,0.07,0.105,0.106c0.034,0.037,0.07,0.07,0.105,0.105c0.034,0.037,0.07,0.07,0.105,0.105
		c0.034,0.037,0.071,0.07,0.106,0.106c0.034,0.037,0.07,0.069,0.105,0.105c0.034,0.037,0.071,0.07,0.105,0.106
		c0.034,0.037,0.07,0.07,0.105,0.105c0.034,0.037,0.07,0.07,0.105,0.105c0.034,0.037,0.07,0.07,0.105,0.105
		c0.034,0.037,0.07,0.07,0.105,0.105c0.034,0.037,0.07,0.07,0.105,0.105c1.757,1.886,4.27,2.417,6.538,2.417h8.465
		c2.209,0,4-1.791,4-4v-2.23c0-1.253-0.576-2.372-1.479-3.105c0.431-0.638,0.682-1.406,0.682-2.233v-0.673
		c0-0.827-0.251-1.596-0.682-2.234c0.902-0.733,1.479-1.852,1.479-3.105V8.627H47.409z"/>
	<path class="ic-new_b" d="M69.427,5.703c-0.035-0.036-0.069-0.071-0.105-0.105c-0.035-0.036-0.07-0.071-0.106-0.106
		c-0.035-0.036-0.069-0.07-0.105-0.105c-0.035-0.036-0.069-0.071-0.105-0.105c-0.035-0.036-0.069-0.071-0.105-0.105
		c-0.035-0.036-0.069-0.071-0.105-0.105C68.761,5.035,68.726,5,68.69,4.965c-0.035-0.036-0.069-0.071-0.105-0.105
		c-0.035-0.036-0.069-0.071-0.105-0.105c-0.035-0.036-0.069-0.071-0.105-0.105c-0.035-0.036-0.069-0.071-0.105-0.105
		c-0.035-0.036-0.069-0.071-0.105-0.105c-0.035-0.036-0.07-0.071-0.106-0.106c-0.035-0.036-0.069-0.07-0.105-0.105
		c-0.035-0.036-0.069-0.071-0.105-0.105c-0.035-0.036-0.069-0.071-0.105-0.105c-0.035-0.036-0.069-0.071-0.105-0.105
		c-0.035-0.036-0.07-0.071-0.105-0.106c-0.035-0.036-0.069-0.071-0.105-0.105c-0.035-0.036-0.069-0.071-0.105-0.105
		c-0.728-0.755-1.745-1.229-2.876-1.229h-2.107c-1.045,0-1.995,0.4-2.708,1.056c-0.713-0.656-1.663-1.056-2.708-1.056h-0.934
		c-1.05,0-2.006,0.405-2.719,1.066c-0.714-0.662-1.67-1.066-2.72-1.066H48.4c-2.209,0-4,1.791-4,4v9.561
		c0,3.631,0.766,6.234,2.383,7.921c0.034,0.037,0.071,0.069,0.105,0.105c0.034,0.037,0.071,0.07,0.106,0.106
		c0.034,0.037,0.071,0.069,0.105,0.105c0.034,0.037,0.071,0.07,0.105,0.105c0.034,0.037,0.071,0.069,0.105,0.105
		c0.034,0.037,0.071,0.069,0.105,0.105c0.034,0.037,0.071,0.07,0.106,0.106c0.034,0.037,0.071,0.069,0.105,0.105
		c0.034,0.037,0.071,0.069,0.105,0.105c0.034,0.037,0.071,0.069,0.105,0.105c0.034,0.037,0.071,0.069,0.105,0.105
		c0.034,0.037,0.071,0.069,0.105,0.105c0.034,0.037,0.071,0.07,0.105,0.106c0.034,0.037,0.071,0.069,0.105,0.105
		c0.034,0.037,0.071,0.069,0.105,0.105c0.034,0.037,0.071,0.069,0.105,0.105c0.034,0.037,0.071,0.07,0.105,0.106
		c0.034,0.037,0.071,0.07,0.105,0.106c0.034,0.037,0.071,0.069,0.105,0.105c0.034,0.037,0.071,0.069,0.105,0.105
		c1.561,1.704,3.952,2.508,7.268,2.508h4.713c6.495,0,9.788-3.473,9.788-10.323V8.579C70.656,7.447,70.182,6.431,69.427,5.703z"/>
	<path class="ic-new_w" d="M17.851,23.494c-2.016,0-3.362-1.314-4.364-4.263l-2.092-6.161c-0.255-0.993-0.949-1.064-1.156-1.064
		c-0.421,0-1.133,0.277-1.133,1.316v8.951c0,0.553-0.448,1-1,1H6c-0.552,0-1-0.447-1-1V10.305C5,7.12,6.506,5.294,9.133,5.294
		c2.1,0,3.317,1.021,4.068,3.412l2.179,6.926c0.221,1.012,0.851,1.149,1.208,1.149c0.473,0,1.177-0.357,1.177-1.341V6.464
		c0-0.552,0.448-1,1-1h2.129c0.552,0,1,0.448,1,1v11.897C21.895,22.962,19.586,23.494,17.851,23.494z M41.199,23.274
		c0.553,0,1-0.447,1-1v-2.229c0-0.553-0.447-1-1-1h-7.227c-2.166,0-2.416-1.335-2.416-2.339c0-0.551,0.449-1,1-1h7.846
		c0.552,0,1-0.448,1-1v-0.673c0-0.552-0.448-1-1-1h-7.823c-0.288,0-0.562-0.124-0.751-0.34c-0.19-0.216-0.277-0.503-0.24-0.789
		c0.19-1.466,0.993-2.21,2.385-2.21H41.2c0.553,0,1-0.448,1-1V6.416c0-0.552-0.447-1-1-1h-8.4c-4.925,0-5.858,2.651-5.858,7.542
		v3.772c0,4.648,1.678,6.544,5.793,6.544H41.199z M58.658,23.251c4.821,0,6.788-2.122,6.788-7.324v-9.56c0-0.552-0.447-1-1-1h-2.107
		c-0.553,0-1,0.448-1,1v9.293c0,2.557-1.186,2.985-2.416,3.068c-0.254,0-0.496-0.095-0.683-0.269
		c-0.201-0.188-0.317-0.455-0.317-0.731V6.367c0-0.552-0.447-1-1-1h-0.934c-0.553,0-1,0.448-1,1v11.361
		c0,0.28-0.118,0.548-0.324,0.737c-0.182,0.167-0.417,0.259-0.747,0.259c-0.006,0-0.011,0-0.016,0
		c-1.095-0.096-2.352-0.532-2.352-3.065V6.367c0-0.552-0.447-1-1-1H48.4c-0.553,0-1,0.448-1,1v9.561c0,6.157,2.3,7.324,6.545,7.324
		L58.658,23.251L58.658,23.251z"/>
</g>
</svg>
